<?xml version="1.0" encoding="UTF-8" standalone="no"?>
<svg
   xmlns:dc="http://purl.org/dc/elements/1.1/"
   xmlns:cc="http://creativecommons.org/ns#"
   xmlns:rdf="http://www.w3.org/1999/02/22-rdf-syntax-ns#"
   xmlns:svg="http://www.w3.org/2000/svg"
   xmlns="http://www.w3.org/2000/svg"
   xmlns:sodipodi="http://sodipodi.sourceforge.net/DTD/sodipodi-0.dtd"
   xmlns:inkscape="http://www.inkscape.org/namespaces/inkscape"
   width="170.5894mm"
   height="48.187202mm"
   viewBox="0 0 170.5894 48.187202"
   version="1.1"
   id="SVGRoot"
   sodipodi:docname="AlgaeBioPlasticLabLogo.svg"
   inkscape:export-filename="/home/cheapjack/AlgaeBioPlasticLab/Logo.png"
   inkscape:export-xdpi="150.2356"
   inkscape:export-ydpi="150.2356"
   inkscape:version="1.0.2 (1.0.2+r75+1)">
  <defs
     id="defs1659" />
  <sodipodi:namedview
     id="base"
     pagecolor="#ffffff"
     bordercolor="#666666"
     borderopacity="1.0"
     inkscape:pageopacity="0.0"
     inkscape:pageshadow="2"
     inkscape:zoom="1.9084026"
     inkscape:cx="210.69877"
     inkscape:cy="47.101195"
     inkscape:document-units="mm"
     inkscape:current-layer="layer1"
     inkscape:document-rotation="0"
     showgrid="false"
     inkscape:window-width="1600"
     inkscape:window-height="847"
     inkscape:window-x="0"
     inkscape:window-y="27"
     inkscape:window-maximized="1" />
  <metadata
     id="metadata1662">
    <rdf:RDF>
      <cc:Work
         rdf:about="">
        <dc:format>image/svg+xml</dc:format>
        <dc:type
           rdf:resource="http://purl.org/dc/dcmitype/StillImage" />
        <dc:title></dc:title>
      </cc:Work>
    </rdf:RDF>
  </metadata>
  <g
     inkscape:label="Layer 1"
     inkscape:groupmode="layer"
     id="layer1"
     transform="translate(-13.59548,-81.317253)">
    <path
       style="opacity:0.97;fill:#19961e;fill-opacity:1;stroke:none;stroke-width:0.271341;stroke-miterlimit:4;stroke-dasharray:none;stroke-opacity:1"
       d="m 16.710488,128.75088 c -2.084584,-1.05681 -3.139529,-2.78937 -3.114575,-5.11516 0.01708,-1.59356 0.255769,-2.15325 5.547576,-13.00959 l 5.529695,-11.344389 v -7.352972 c 0,-7.196322 -0.0118,-7.35296 -0.553783,-7.35296 -0.758525,0 -1.249457,-1.107741 -0.834535,-1.88303 0.306504,-0.572699 0.440922,-0.582557 7.939306,-0.582557 6.316684,0 7.683992,0.06803 7.95606,0.395851 0.486821,0.586594 0.236582,1.620592 -0.466912,1.92923 l -0.616394,0.27043 v 7.424579 7.424592 l 5.384985,11.070826 c 5.738249,11.7971 6.042827,12.65304 5.301602,14.89899 -0.449308,1.36141 -1.810216,2.85975 -3.150501,3.46861 -1.012806,0.46011 -2.121819,0.49935 -14.267319,0.50491 l -13.169155,0.006 z m 28.67362,-2.91761 c 1.660506,-1.66052 1.627093,-1.7668 -4.547633,-14.46444 l -5.479086,-11.26711 v -7.762968 -7.762943 h -3.972334 -3.972334 v 7.620025 7.620026 l -5.616059,11.55424 c -3.088824,6.35484 -5.616049,11.8697 -5.616049,12.25525 0,0.38555 0.186468,1.06158 0.414374,1.50229 0.843533,1.63123 0.686678,1.6141 14.885948,1.62611 l 12.971733,0.011 0.93144,-0.93144 z m -27.407264,-1.04719 c -0.234553,-0.33487 -0.426468,-0.85331 -0.426468,-1.15206 0,-0.40504 6.569274,-14.39627 6.996891,-14.90198 0.04121,-0.0488 0.450168,0.10532 0.908713,0.34244 1.235562,0.63894 2.773519,0.52817 5.425532,-0.39073 1.555661,-0.53903 2.908444,-0.82186 3.930938,-0.82186 2.993462,0 2.7238,-0.32036 6.798734,8.07652 2.566921,5.28943 3.598403,7.68715 3.474672,8.07699 -0.450634,1.41982 -0.04649,1.37955 -13.841814,1.37955 H 18.403311 Z"
       id="path5830-6"
       sodipodi:nodetypes="csscsssssscccssscccsscccccccssssccsssssssssscs" />
    <path
       style="color:#000000;font-style:normal;font-variant:normal;font-weight:normal;font-stretch:normal;font-size:medium;line-height:normal;font-family:sans-serif;font-variant-ligatures:normal;font-variant-position:normal;font-variant-caps:normal;font-variant-numeric:normal;font-variant-alternates:normal;font-variant-east-asian:normal;font-feature-settings:normal;font-variation-settings:normal;text-indent:0;text-align:start;text-decoration:none;text-decoration-line:none;text-decoration-style:solid;text-decoration-color:#000000;letter-spacing:normal;word-spacing:normal;text-transform:none;writing-mode:lr-tb;direction:ltr;text-orientation:mixed;dominant-baseline:auto;baseline-shift:baseline;text-anchor:start;white-space:normal;shape-padding:0;shape-margin:0;inline-size:0;clip-rule:nonzero;display:inline;overflow:visible;visibility:visible;opacity:0.97;isolation:auto;mix-blend-mode:normal;color-interpolation:sRGB;color-interpolation-filters:linearRGB;solid-color:#000000;solid-opacity:1;vector-effect:none;fill:#ffffff;fill-opacity:1;fill-rule:nonzero;stroke:none;stroke-width:0.271341;stroke-linecap:butt;stroke-linejoin:round;stroke-miterlimit:4;stroke-dasharray:none;stroke-dashoffset:0;stroke-opacity:1;paint-order:normal;color-rendering:auto;image-rendering:auto;shape-rendering:auto;text-rendering:auto;enable-background:accumulate;stop-color:#000000"
       d="m 33.691891,111.41242 c -0.740654,-0.0806 -1.492522,-0.0527 -2.226529,0.0817 -1.306457,0.23788 -2.538645,0.82076 -3.523999,1.7075 l 1.822406,1.87095 c 0.596006,-0.53636 1.379133,-0.91199 2.19821,-1.06091 h 0.001 c 0.933884,-0.17107 1.937855,-0.0642 2.791753,0.30536 l 0.001,9.6e-4 c 0.254826,0.11004 0.498387,0.24118 0.723279,0.39283 l 1.531589,-2.0989 c -0.366623,-0.24723 -0.756064,-0.45767 -1.160239,-0.63227 -0.689181,-0.2983 -1.418787,-0.48707 -2.159442,-0.56773 z m 5.477624,3.58706 -2.381635,1.15268 c 0.250021,0.4773 0.384037,1.02163 0.383272,1.55553 -0.305366,1.64477 -0.23974,0.90736 -0.451868,1.68458 -6.4e-4,6.4e-4 -6.4e-4,0.002 -9.6e-4,0.002 -0.355666,0.62304 -0.923686,1.16265 -1.58976,1.524 l -10e-4,9.6e-4 c -0.551504,0.30042 -1.182394,0.48892 -1.822395,0.54623 l 0.247568,2.55194 c 1.010173,-0.0905 1.997557,-0.38196 2.888678,-0.86738 1.080613,-0.58663 2.001086,-1.4487 2.612801,-2.51896 l 9.61e-4,-9.6e-4 c 0.5116,-0.89069 0.784475,-1.89676 0.782963,-2.92039 v -9.6e-4 c 0,-6.5e-4 0,-0.002 0,-0.002 h -9.61e-4 c 6.41e-4,-0.93966 -0.227284,-1.86802 -0.66663,-2.70678 z m -13.005807,0.88457 c -0.301586,0.90722 -0.371021,1.86935 -0.211764,2.80284 0.169467,1.00113 0.602996,1.93633 1.233326,2.72829 0.813962,1.02631 1.926238,1.78651 3.166067,2.21648 l 0.903743,-2.41289 c -0.769439,-0.26685 -1.465892,-0.74835 -1.949152,-1.3577 -7.68e-4,-6.4e-4 -0.0031,-0.002 -0.0031,-0.002 -0.370689,-0.46526 -0.623621,-1.02104 -0.718817,-1.58422 l -0.001,-9.6e-4 c -0.09122,-0.53445 -0.04887,-1.09831 0.120802,-1.60857 z"
       id="path5980-9"
       sodipodi:nodetypes="sccccccccccsccccccccccccsscccccccccccccc" />
    <circle
       style="opacity:0.97;fill:#ffffff;fill-opacity:1;stroke:none;stroke-width:0.271341;stroke-linecap:butt;stroke-linejoin:round;stroke-miterlimit:4;stroke-dasharray:none;stroke-dashoffset:0;stroke-opacity:1;paint-order:normal;stop-color:#000000"
       id="path6949-3"
       cx="41.124062"
       cy="121.98956"
       r="1.4543737" />
    <circle
       style="display:inline;opacity:0.97;fill:#ffffff;fill-opacity:1;stroke:none;stroke-width:0.271341;stroke-linecap:butt;stroke-linejoin:round;stroke-miterlimit:4;stroke-dasharray:none;stroke-dashoffset:0;stroke-opacity:1;paint-order:normal;stop-color:#000000"
       id="path6949-2-7"
       cx="25.185696"
       cy="112.344"
       r="1.0038999" />
    <text
       xml:space="preserve"
       style="font-size:33.8725px;line-height:1.25;font-family:sans-serif;letter-spacing:0px;word-spacing:0px;fill:#19961e;fill-opacity:1;stroke-width:0.846811;"
       x="46.59819"
       y="103.52954"
       id="text1559"><tspan
         sodipodi:role="line"
         id="tspan1557"
         x="46.59819"
         y="103.52954"
         style="font-style:normal;font-variant:normal;font-weight:normal;font-stretch:normal;font-family:Garamond;-inkscape-font-specification:Garamond;fill:#19961e;fill-opacity:1;stroke-width:0.846811;">AlgaeBio</tspan></text>
    <text
       xml:space="preserve"
       style="font-size:33.8725px;line-height:1.25;font-family:sans-serif;letter-spacing:0px;word-spacing:0px;fill:#19961e;fill-opacity:1;stroke-width:0.846811;"
       x="50.464592"
       y="128.31757"
       id="text1559-3"><tspan
         sodipodi:role="line"
         id="tspan1557-6"
         x="50.464592"
         y="128.31757"
         style="font-style:normal;font-variant:normal;font-weight:normal;font-stretch:normal;font-family:Garamond;-inkscape-font-specification:Garamond;fill:#19961e;fill-opacity:1;stroke-width:0.846811;">PlasticLab</tspan></text>
  </g>
</svg>
